<svg version="1.1" xmlns="http://www.w3.org/2000/svg" viewBox="0 0 1574.2048752480673 511.76273027760453" width="1574.2048752480673" height="511.76273027760453">
  <!-- svg-source:excalidraw -->
  
  <defs>
    <style>
      @font-face {
        font-family: "Virgil";
        src: url("https://excalidraw.com/Virgil.woff2");
      }
      @font-face {
        font-family: "Cascadia";
        src: url("https://excalidraw.com/Cascadia.woff2");
      }
    </style>
  </defs>
  <rect x="0" y="0" width="1574.2048752480673" height="511.76273027760453" fill="#f3f0ff"></rect><g stroke-linecap="round" transform="translate(450 30) rotate(0 220 200)"><path d="M0.85 0.05 C172.28 1.77, 344.17 2.54, 440.44 0.75 M0.22 -0.14 C163.31 -2.31, 327.84 -1.68, 439.55 -0.04 M439.55 -0.48 C442.24 142.11, 441.29 286.94, 439.04 399.86 M440.54 -0.55 C438.42 92.78, 438.56 185.58, 440.17 399.58 M440.94 400.12 C282.94 398.39, 124.34 398.43, 0.6 400.15 M440.34 399.51 C349.43 400.8, 258.09 401.26, -0.41 399.81 M0.17 400.47 C-0.06 265.27, -0.56 131.88, -0.25 -0.16 M0.16 399.56 C2.47 318.31, 1.8 236.21, -0.01 0.53" stroke="#000000" stroke-width="1" fill="none"></path></g><g transform="translate(450 10) rotate(0 31 11.5)"><text x="0" y="18" font-family="Helvetica, Segoe UI Emoji" font-size="20px" fill="#000000" text-anchor="start" style="white-space: pre;" direction="ltr">Sistem</text></g><g stroke-linecap="round" transform="translate(790 30) rotate(0 50 50)"><path d="M-1.06 0.62 C33.04 0.47, 70.19 -1.95, 101.88 0.23 M-0.19 0.6 C34.97 -0.35, 69.82 1.13, 100.67 -0.99 M100.21 -1.66 C98.41 38.56, 99.04 75.53, 100.29 100.83 M100.41 -0.22 C99.47 27.04, 98.69 55.66, 100.28 99.23 M98.37 99.95 C65.06 99.93, 27.22 98.02, -0.84 100.07 M100.68 99.85 C74.04 100.14, 47.95 99.85, -0.43 99.48 M0.84 99.1 C0.79 76.79, -0.21 54.97, -0.03 -1.04 M-0.08 100.46 C-0.25 62.9, -0.91 27.49, 0.64 -0.84" stroke="#000000" stroke-width="1" fill="none"></path></g><g transform="translate(810 50) rotate(0 37.5 19)"><text x="0" y="15" font-family="Cascadia, Segoe UI Emoji" font-size="16px" fill="#a61e4d" text-anchor="start" style="white-space: pre;" direction="ltr">DATABASE</text><text x="0" y="34" font-family="Cascadia, Segoe UI Emoji" font-size="16px" fill="#a61e4d" text-anchor="start" style="white-space: pre;" direction="ltr">MONGODB</text></g><g stroke-linecap="round" transform="translate(650 30) rotate(0 120 200)"><path d="M-0.75 0.85 C76.53 -0.83, 154.23 -0.86, 239.13 1.07 M0.38 -0.12 C73.86 -0.52, 149.13 0.68, 239.3 0.18 M239.35 -0.76 C240.11 153.67, 240.36 307.43, 239.28 400.23 M239.49 0.2 C238.46 110.34, 238.9 220.78, 239.77 399.69 M241.65 398.99 C155.11 398.47, 69.77 399.29, 0.97 401.43 M239.55 399.99 C172.19 398.93, 104.84 398.11, -0.5 400.63 M-0.4 400.1 C-0.21 258.74, 1.01 118.46, -0.65 -0.45 M0.43 400.37 C-1.76 291.8, -2.31 184.45, 0.47 -0.45" stroke="#5c940d" stroke-width="1" fill="none"></path></g><g stroke-linecap="round" transform="translate(450 30) rotate(0 100 190)"><path d="M0.19 -0.13 C52.21 -0.54, 100.53 -1.62, 201.01 -0.23 M0.33 -0.58 C55.74 0.96, 111.16 1.86, 199.84 0.6 M199.75 1.12 C198.93 78.76, 198.06 158.54, 200.64 379.61 M199.5 0.02 C199.35 150.14, 198.86 298.9, 199.82 380.59 M201.49 378.92 C149.94 381.69, 101.86 379.74, -0.89 378.75 M200.81 379.42 C139.63 379.1, 77.57 379.37, -0.12 380.13 M-0.5 379.96 C0.81 294.96, -1.31 209.25, 0.29 -0.92 M-0.42 379.58 C-0.29 283.9, 0.37 187.25, -0.01 -0.46" stroke="#0b7285" stroke-width="1" fill="none"></path></g><g transform="translate(471 49.5) rotate(0 24 9.5)"><text x="0" y="15" font-family="Cascadia, Segoe UI Emoji" font-size="16px" fill="#0b7285" text-anchor="start" style="white-space: pre;" direction="ltr">REACT</text></g><g transform="translate(666 52.5) rotate(0 28.5 9.5)"><text x="0" y="15" font-family="Cascadia, Segoe UI Emoji" font-size="16px" fill="#5c940d" text-anchor="start" style="white-space: pre;" direction="ltr">NODEJS</text></g><g transform="translate(770 370) rotate(0 52 9.5)"><text x="0" y="15" font-family="Cascadia, Segoe UI Emoji" font-size="16px" fill="#5c940d" text-anchor="start" style="white-space: pre;" direction="ltr">Arquitetura</text></g><g stroke-linecap="round" transform="translate(750 330) rotate(0 70 50)"><path d="M59.79 0.53 C70.03 -1.28, 83.75 0.72, 93.99 3.43 C104.22 6.14, 113.79 11.19, 121.21 16.79 C128.64 22.39, 135.69 29.77, 138.52 37.04 C141.34 44.32, 140.84 53, 138.18 60.42 C135.53 67.84, 129.42 75.75, 122.59 81.56 C115.76 87.38, 107 92.35, 97.19 95.33 C87.38 98.3, 74.63 100.03, 63.72 99.42 C52.81 98.82, 40.89 95.96, 31.74 91.7 C22.6 87.43, 14.15 80.54, 8.87 73.84 C3.6 67.14, 0.48 59.33, 0.09 51.51 C-0.31 43.69, 1.53 33.81, 6.49 26.92 C11.45 20.04, 20.27 14.79, 29.84 10.2 C39.41 5.6, 57.84 0.81, 63.9 -0.63 C69.97 -2.07, 66.15 0.56, 66.23 1.57 M37.05 5.48 C45.58 1.72, 57.77 1.33, 68.83 1.13 C79.89 0.93, 93.54 0.99, 103.42 4.27 C113.31 7.56, 121.98 14.23, 128.14 20.83 C134.31 27.44, 139.29 36.28, 140.41 43.9 C141.53 51.52, 139.06 59.29, 134.89 66.53 C130.72 73.78, 123.46 81.83, 115.39 87.39 C107.32 92.96, 97.09 98.18, 86.47 99.93 C75.86 101.67, 61.97 99.89, 51.72 97.86 C41.47 95.83, 32.95 92.99, 24.99 87.74 C17.03 82.5, 8.23 73.64, 3.95 66.38 C-0.33 59.13, -2.05 51.67, -0.68 44.23 C0.69 36.8, 5.81 28.11, 12.17 21.79 C18.54 15.48, 33.16 8.84, 37.52 6.33 C41.88 3.82, 38.03 6.1, 38.33 6.72" stroke="#5c940d" stroke-width="1" fill="none"></path></g><g stroke-linecap="round"><g transform="translate(630.9078379500658 370.6934755384236) rotate(0 49.09216204998842 0.5323164528793427)"><path d="M-0.91 -0.65 C6.98 -0.52, 29.67 -0.42, 46.34 -0.42 C63 -0.42, 90.45 -0.62, 99.09 -0.66 M0.82 1.63 C8.7 2.02, 29.52 1.12, 45.81 0.9 C62.11 0.68, 89.83 0.44, 98.57 0.31" stroke="#5c940d" stroke-width="1" fill="none"></path></g><g transform="translate(630.9078379500658 370.6934755384236) rotate(0 49.09216204998842 0.5323164528793427)"><path d="M72.65 11.04 C78.52 8.6, 83.53 5.07, 97.5 0.45 M73.22 9.18 C81.8 6.49, 91.93 3.25, 99.52 0.57" stroke="#5c940d" stroke-width="1" fill="none"></path></g><g transform="translate(630.9078379500658 370.6934755384236) rotate(0 49.09216204998842 0.5323164528793427)"><path d="M72.43 -7.12 C78.18 -5.61, 83.23 -5.19, 97.5 0.45 M73.01 -8.98 C81.78 -5.14, 91.98 -1.84, 99.52 0.57" stroke="#5c940d" stroke-width="1" fill="none"></path></g></g><g transform="translate(650 350) rotate(0 24 9.5)"><text x="0" y="15" font-family="Cascadia, Segoe UI Emoji" font-size="16px" fill="#c92a2a" text-anchor="start" style="white-space: pre;" direction="ltr">Fetch</text></g><g stroke-linecap="round"><g transform="translate(630 410) rotate(0 52.80320350639522 1.4393834189698396)"><path d="M-0.44 0.86 C17.12 1.27, 88.41 2.49, 106.05 2.61 M1.53 0.27 C18.96 0.3, 88.43 0.41, 105.65 0.81" stroke="#5c940d" stroke-width="1" fill="none"></path></g><g transform="translate(630 410) rotate(0 52.80320350639522 1.4393834189698396)"><path d="M78.79 12.52 C88.45 7.99, 96.81 4, 106.26 1.52 M77.06 10.44 C87.62 8.1, 95.89 3.86, 105.06 1.4" stroke="#5c940d" stroke-width="1" fill="none"></path></g><g transform="translate(630 410) rotate(0 52.80320350639522 1.4393834189698396)"><path d="M79.01 -8 C88.63 -5.21, 96.91 -1.88, 106.26 1.52 M77.28 -10.08 C87.8 -5.67, 96 -3.16, 105.06 1.4" stroke="#5c940d" stroke-width="1" fill="none"></path></g></g><g transform="translate(650 390) rotate(0 42.5 9.5)"><text x="0" y="15" font-family="Cascadia, Segoe UI Emoji" font-size="16px" fill="#c92a2a" text-anchor="start" style="white-space: pre;" direction="ltr">FORM post</text></g><g transform="translate(667 85.5) rotate(0 33.5 9.5)"><text x="0" y="15" font-family="Cascadia, Segoe UI Emoji" font-size="16px" fill="#364fc7" text-anchor="start" style="white-space: pre;" direction="ltr">Express</text></g><g stroke-linecap="round" transform="translate(470 210) rotate(0 80 100)"><path d="M-0.7 -0.6 C63.2 -3.29, 127.48 -0.15, 160.58 0.76 M-0.75 -0.64 C59.97 0.09, 120.04 0.62, 160.34 -0.51 M159.3 0.21 C158.46 61.83, 159.52 122.42, 158.84 201.06 M160.38 0.55 C159.14 64.18, 159.19 129.33, 160.31 200.2 M161.18 199.37 C105.69 198.07, 48.02 199.77, 0.26 200.64 M159.29 199.2 C103.61 200.36, 47.57 199.31, 0.62 200.5 M-1.67 200.21 C1.78 130.01, 2.57 60.65, -0.53 0.71 M-0.78 200.64 C-1.09 146.85, -0.29 93.38, 0.6 -0.74" stroke="#364fc7" stroke-width="1" fill="none"></path></g><g transform="translate(490 370) rotate(0 61.5 9.5)"><text x="0" y="15" font-family="Cascadia, Segoe UI Emoji" font-size="16px" fill="#364fc7" text-anchor="start" style="white-space: pre;" direction="ltr">List all page</text></g><g stroke-linecap="round" transform="translate(490 310) rotate(0 60 20)"><path d="M0.49 -1.01 C36.72 0.13, 74.69 -0.62, 118.38 0.22 M0.44 -0.97 C28.44 0.32, 58.49 0.08, 119.8 -0.97 M120.99 -0.68 C119.7 13.19, 118.46 28.31, 121.28 38.84 M120.45 -0.67 C120.04 9.43, 120.37 21.04, 119.42 40.75 M119.35 40.88 C95.48 38.74, 68.91 39.8, 0.81 41.12 M119.12 40.25 C78.83 38.25, 36.86 38.17, -0.67 40.93 M-0.43 39.39 C-1.82 22.61, -1.24 9.35, 0.65 1.58 M-0.67 40.31 C-0.32 30.02, 0.61 22.27, -0.07 0.6" stroke="#364fc7" stroke-width="1" fill="none"></path></g><g transform="translate(500 325.5) rotate(0 33.5 9.5)"><text x="0" y="15" font-family="Cascadia, Segoe UI Emoji" font-size="16px" fill="#364fc7" text-anchor="start" style="white-space: pre;" direction="ltr">Filters</text></g><g stroke-linecap="round" transform="translate(490 230) rotate(0 60 30)"><path d="M1.34 1.53 C33.97 2.68, 71.29 2.36, 121.01 -0.59 M-0.51 -0.66 C48.65 -0.95, 95.96 0.02, 119.44 -0.89 M118.78 -0.95 C119.32 16.22, 121.51 35.25, 121.85 61.15 M120.51 0.49 C119.88 15.38, 119.81 30.75, 119.21 60.84 M120.85 60.08 C81.48 60.3, 37.63 59.39, -0.81 58.4 M119.27 60.04 C72.62 60.11, 24.03 61.11, 0.29 59.25 M1.32 61.07 C-0.3 38.09, -2.14 19.87, -1.83 -1.73 M0.35 59.91 C1.53 36.72, 0.75 15.26, -0.97 0.25" stroke="#364fc7" stroke-width="1" fill="none"></path></g><g transform="translate(506 249.5) rotate(0 47.5 19)"><text x="0" y="15" font-family="Cascadia, Segoe UI Emoji" font-size="16px" fill="#364fc7" text-anchor="start" style="white-space: pre;" direction="ltr">CRUD opera</text><text x="0" y="34" font-family="Cascadia, Segoe UI Emoji" font-size="16px" fill="#364fc7" text-anchor="start" style="white-space: pre;" direction="ltr">     tions</text></g><g transform="translate(476 180.5) rotate(0 42.5 9.5)"><text x="0" y="15" font-family="Cascadia, Segoe UI Emoji" font-size="16px" fill="#000000" text-anchor="start" style="white-space: pre;" direction="ltr">MAIN PAGE</text></g><g stroke-linecap="round"><g transform="translate(469 289.98863636363643) rotate(0 -88.24054670232346 -0.5730346793139063)"><path d="M-0.22 1.18 C-29.35 0.88, -145.9 -1.88, -175.2 -2.33 M-1.8 0.76 C-31.07 0.67, -147.61 -0.24, -176.26 -0.97" stroke="#000000" stroke-width="1" fill="none"></path></g><g transform="translate(469 289.98863636363643) rotate(0 -88.24054670232346 -0.5730346793139063)"><path d="M-145.94 -11.14 C-156 -10.01, -162.16 -4.04, -177.25 -0.57 M-147.39 -10.19 C-155.29 -8.55, -162.62 -6.71, -176.64 -1.86" stroke="#000000" stroke-width="1" fill="none"></path></g><g transform="translate(469 289.98863636363643) rotate(0 -88.24054670232346 -0.5730346793139063)"><path d="M-146.25 9.38 C-156.15 5.1, -162.22 5.66, -177.25 -0.57 M-147.71 10.33 C-155.59 6.7, -162.84 3.28, -176.64 -1.86" stroke="#000000" stroke-width="1" fill="none"></path></g></g><g stroke-linecap="round" transform="translate(10 30) rotate(0 140 200)"><path d="M-0.93 -0.8 C61.77 2.61, 122.83 0.73, 279.85 0.31 M0.72 0.54 C106.48 -0.98, 211.2 -1.42, 279.25 -0.19 M281.1 -0.01 C278.62 141.34, 278.3 283.85, 280.58 398.94 M279.72 -0.52 C278.69 153.6, 278.37 307.64, 279.83 400.38 M279.9 400.73 C211 401.61, 138.83 401.95, 0.52 398.69 M279.87 399.97 C214.02 399.93, 149.54 399.73, 0.17 400.6 M-0.26 400.81 C-2.27 269.59, -1.06 141.46, -0.25 0.34 M-0.38 400.19 C1.95 316.58, 2.08 233.05, 0.27 0.16" stroke="#000000" stroke-width="1" fill="none"></path></g><g stroke-linecap="round" transform="translate(30 50) rotate(0 120 30)"><path d="M-1.17 -0.16 C94.59 0.47, 188.84 1.03, 238.93 0.27 M-0.36 -0.25 C59.96 -0.78, 120.63 -0.94, 239.73 0.2 M241.42 -1.35 C242.15 18.3, 238.57 33.92, 241.8 59.95 M239.99 0.28 C239.7 17.19, 240.75 34.18, 240.66 59.33 M239.08 60.64 C175.1 58.28, 107.71 57.12, -1.24 61.01 M239.92 60.58 C183.96 61.36, 128.83 61.25, 0.32 59.52 M1.39 58.62 C1.02 43.95, -0.7 27.14, -1.85 0.11 M-0.81 59.92 C-0.6 41.24, 0.01 24.5, 0.58 -0.36" stroke="#000000" stroke-width="1" fill="none"></path></g><g stroke-linecap="round" transform="translate(30 270) rotate(0 120 70)"><path d="M-0.72 -0.5 C59.89 -1.03, 121.2 -1.36, 239.45 0.41 M0.59 -0.56 C71.27 -1.11, 140.28 -1.95, 240.75 -0.02 M239.97 0.56 C239.39 40.04, 241.5 79.68, 241.32 138.65 M239.45 0.39 C241.89 38.51, 241.29 76.54, 239.26 140.6 M239.83 141.17 C183.62 141.76, 129.06 141.54, 0.63 139.04 M240.58 139.43 C171.85 138.88, 102.33 139.04, -0.77 140.05 M-1.61 139.84 C-1.38 96.54, -0.16 57.12, 1.17 -0.73 M0.46 139.39 C1.95 87.33, 0.56 34.71, 0.9 -0.21" stroke="#000000" stroke-width="1" fill="none"></path></g><g transform="translate(30 70) rotate(0 132 19)"><text x="0" y="15" font-family="Cascadia, Segoe UI Emoji" font-size="16px" fill="#000000" text-anchor="start" style="white-space: pre;" direction="ltr">Filters by: </text><text x="0" y="34" font-family="Cascadia, Segoe UI Emoji" font-size="16px" fill="#000000" text-anchor="start" style="white-space: pre;" direction="ltr">status,ASC, DESC, createdAt </text></g><g stroke-linecap="round" transform="translate(50 290) rotate(0 100 20)"><path d="M-1.63 -0.22 C47.67 0.07, 94.91 -2.41, 199.78 1.27 M-0.1 0.35 C71.07 1.53, 142.7 0.37, 200.55 0.47 M198.55 0.32 C198.29 11.15, 201.52 17.71, 198.31 39.65 M200.92 -0.76 C199.81 9.26, 199.16 18.11, 199.41 40.4 M198.74 40.4 C132.5 40.44, 60.87 41.83, 0.7 39.75 M200.87 39.56 C157.65 39.23, 116.72 39.46, 0.08 40.35 M0.38 41.91 C-1.6 32.61, -0.59 21.25, 0.81 1.83 M0.44 39.49 C0 25.4, -0.53 10.86, 0.64 0.92" stroke="#0b7285" stroke-width="1" fill="none"></path></g><g stroke-linecap="round" transform="translate(50 350) rotate(0 100 20)"><path d="M1.6 0.72 C57.12 1.31, 116.6 -0.94, 198.41 1.16 M0.76 0.85 C45.01 0.46, 90.93 0.61, 199.94 -0.85 M199.96 -1.63 C198.8 14.49, 200.49 32.21, 200.18 40.43 M200.03 -0.82 C200.89 9.58, 199.95 17.46, 200.19 39.93 M198.71 39.71 C119.77 38.58, 41.89 36.95, -0.5 40.52 M200.6 39.68 C135.65 38.83, 73.3 39.14, -0.19 40.56 M0.81 38.77 C1.97 27.53, 2.04 11.79, -0.11 -1.86 M-0.42 39.27 C0.36 24.04, 0.82 10.47, 0.11 0.7" stroke="#0b7285" stroke-width="1" fill="none"></path></g><g stroke-linecap="round" transform="translate(230 290) rotate(0 10 10)"><path d="M-1.63 1.6 C7.22 -0.28, 11.05 0.37, 19.86 1.94 M-0.16 -0.46 C5.11 0.53, 9.23 -0.13, 20.29 0.19 M19.3 -1.3 C20.64 9.74, 21.33 15.4, 21.23 20.87 M19.39 0.88 C20.62 5.9, 19.63 9.92, 19.07 20.81 M18.53 20.58 C12.93 21.42, 10.63 20.14, 1.41 20.84 M20.64 20.46 C15.62 19.46, 12.22 20.23, 0.66 19.02 M-0.23 19.63 C1.19 11.87, -1.41 8.4, -1.81 -1.84 M0.55 19.91 C0.62 16.36, 0.37 12.05, 0.34 -0.21" stroke="#0b7285" stroke-width="1" fill="none"></path></g><g stroke-linecap="round" transform="translate(230 310) rotate(0 10 10)"><path d="M0.77 -0.28 C4.21 0.22, 11.96 1.78, 19.03 -1.75 M0.09 0.39 C3.75 -0.18, 9.42 0.28, 20.96 -0.85 M20.81 1.83 C21.44 6.91, 21.16 15.55, 18.99 19.84 M20.64 0.92 C19.52 6.76, 18.95 14.44, 19.83 20.73 M18.58 21.5 C16.78 20.29, 11.1 20.89, -1.75 20.25 M19.88 19.45 C14.62 20.31, 8.43 19.11, 0.19 19.14 M1.01 18.26 C-1.56 14.2, -1.78 4.2, -1.69 1.5 M0.77 20.67 C0.41 14.24, 0.23 6.95, -0.32 0.64" stroke="#0b7285" stroke-width="1" fill="none"></path></g><g stroke-linecap="round" transform="translate(230 350) rotate(0 10 10)"><path d="M-1.84 0.38 C7.46 1.97, 14.23 -1.72, 18.57 -0.33 M-0.82 -0.28 C5.36 0.11, 11.11 -0.93, 20.67 -0.35 M21.51 -0.43 C21.32 5.58, 19.07 9.24, 20.81 18.77 M19.64 -0.05 C19.2 8.58, 19.95 16.26, 19.58 19.27 M21.94 20.23 C14.83 20.99, 5.1 20.4, 0.11 21.29 M20.73 20.22 C13.73 18.91, 6.34 19.03, 0.49 19.89 M-1.58 21.18 C-1.91 12.52, -1.79 10.24, 0.42 1.11 M0.52 20.66 C0.19 13.98, -0.48 9.02, -0.58 0.44" stroke="#0b7285" stroke-width="1" fill="none"></path></g><g stroke-linecap="round"><g transform="translate(231.13197912685575 290.9644324529916) rotate(0 9.243562996824721 9.750539743039354)"><path d="M-1.13 -0.96 C2.34 2.06, 19.22 15.75, 19.62 18.8 C20.02 21.85, 1.58 20.33, 1.28 17.35 C0.98 14.37, 15.28 3.32, 17.81 0.92 M0.47 1.14 C3.98 3.77, 18.69 14.24, 19.24 17.06 C19.79 19.88, 3.97 20.66, 3.79 18.06 C3.6 15.46, 15.76 3.84, 18.13 1.46" stroke="#0b7285" stroke-width="1" fill="none"></path></g></g><g stroke-linecap="round" transform="translate(230 310) rotate(0 10 10)"><path d="M7.58 -0.27 C9.45 -0.83, 11.9 0.79, 13.8 1.67 C15.7 2.54, 17.86 3.1, 18.98 5 C20.11 6.9, 20.99 10.77, 20.55 13.05 C20.11 15.33, 18.03 17.4, 16.34 18.7 C14.66 20, 12.69 21.02, 10.42 20.85 C8.16 20.68, 4.6 19.14, 2.76 17.67 C0.91 16.2, -0.42 14.15, -0.66 12.01 C-0.89 9.87, 0.13 6.73, 1.35 4.83 C2.57 2.93, 5.59 1.33, 6.67 0.61 C7.75 -0.12, 7.66 0.21, 7.82 0.48 M7.43 0.14 C9.47 -0.54, 13.81 0.61, 15.88 1.47 C17.95 2.33, 19.44 3.44, 19.84 5.33 C20.25 7.22, 19.27 10.43, 18.32 12.83 C17.38 15.22, 15.88 18.49, 14.15 19.7 C12.42 20.91, 10.03 20.45, 7.96 20.09 C5.89 19.73, 3.01 19.29, 1.73 17.54 C0.44 15.79, 0.16 12.03, 0.25 9.57 C0.34 7.11, 0.83 4.58, 2.27 2.77 C3.71 0.96, 8.15 -1.08, 8.91 -1.29 C9.67 -1.51, 7.15 1.24, 6.84 1.47" stroke="#0b7285" stroke-width="1" fill="none"></path></g><g stroke-linecap="round" transform="translate(30 130) rotate(0 120 60)"><path d="M-0.99 1.55 C94.82 -2.4, 187.95 -2.75, 238.56 1.58 M-0.56 -0.21 C89.65 -0.99, 179.6 -0.89, 239.85 -0.21 M238.42 0.26 C240.14 31.46, 238.05 65.64, 239.65 118.24 M239.32 -0.28 C240.64 23.96, 240.62 47.99, 239.17 119.44 M238.96 119.35 C153.67 119.85, 65.23 122.29, -1.44 118.47 M240.66 120.05 C166.08 121.38, 91.05 121.65, 0 119.42 M1 119.09 C2.42 77.49, -0.73 31.68, -0.88 -1.34 M0.53 120.01 C-0.04 76.27, 0.51 33.66, -0.48 -0.83" stroke="#0b7285" stroke-width="1" fill="none"></path></g><g stroke-linecap="round" transform="translate(50 170) rotate(0 100 20)"><path d="M-1.2 -0.46 C75.04 -0.44, 150.71 -0.21, 199.67 -0.44 M-0.71 0.11 C55.08 -1.88, 108.63 -1.2, 199.84 -0.79 M198.64 -0.55 C200.85 7.28, 200.81 14.68, 198.33 38.88 M199.38 -0.39 C200.52 13.82, 200.06 29.9, 199.14 39.08 M201.44 40.12 C139.39 41.32, 76.38 41.92, 0.01 38.74 M200.45 39.59 C127.38 39.02, 52.77 38.17, -0.4 39.4 M1.06 40.01 C-1.16 24.77, -0.07 11.79, -0.97 -1.66 M0.94 39.21 C-0.6 27.78, 1 16.34, 0.44 -0.11" stroke="#0b7285" stroke-width="1" fill="none"></path></g><g transform="translate(50 210) rotate(0 71 9.5)"><text x="0" y="15" font-family="Cascadia, Segoe UI Emoji" font-size="16px" fill="#0b7285" text-anchor="start" style="white-space: pre;" direction="ltr">Create One ToDO</text></g><g stroke-linecap="round" transform="translate(750 150) rotate(0 70 80)"><path d="M1.07 -0.03 C39.36 0.06, 81.38 0.06, 139.57 -0.75 M0.64 0.63 C41.29 -1.08, 84.95 -1.13, 139.35 -0.03 M139.09 -0.04 C142.12 44.08, 138.8 85.98, 140.93 160.21 M140.35 0.01 C140.08 40.35, 139.42 79.26, 140.01 160.25 M140.37 158.33 C104.73 159.68, 66.67 161.05, 0.38 161.81 M139.72 160.68 C102.51 158.88, 67.12 158.26, 0.88 159.77 M-1.51 160.22 C1.94 118.54, -1.96 74.61, 0.57 1.16 M-0.23 159.12 C0.1 101.53, 0.75 42.32, 0.4 -0.14" stroke="#0b7285" stroke-width="1" fill="none"></path></g><g transform="translate(750 150) rotate(0 33.5 9.5)"><text x="0" y="15" font-family="Cascadia, Segoe UI Emoji" font-size="16px" fill="#0b7285" text-anchor="start" style="white-space: pre;" direction="ltr">Configs</text></g><g transform="translate(770 190) rotate(0 38 9.5)"><text x="0" y="15" font-family="Cascadia, Segoe UI Emoji" font-size="16px" fill="#0b7285" text-anchor="start" style="white-space: pre;" direction="ltr">- linter</text></g><g transform="translate(770 221.90579710144925) rotate(0 37.5 19)"><text x="0" y="15" font-family="Cascadia, Segoe UI Emoji" font-size="16px" fill="#0b7285" text-anchor="start" style="white-space: pre;" direction="ltr">- heroku</text><text x="0" y="34" font-family="Cascadia, Segoe UI Emoji" font-size="16px" fill="#0b7285" text-anchor="start" style="white-space: pre;" direction="ltr">deploy</text></g><g transform="translate(770 271) rotate(0 28.5 9.5)"><text x="0" y="15" font-family="Cascadia, Segoe UI Emoji" font-size="16px" fill="#0b7285" text-anchor="start" style="white-space: pre;" direction="ltr">- .env</text></g><g transform="translate(479.4510869565215 79.09420289855075) rotate(0 47.5 19)"><text x="0" y="15" font-family="Cascadia, Segoe UI Emoji" font-size="16px" fill="#0b7285" text-anchor="start" style="white-space: pre;" direction="ltr">-hooks</text><text x="0" y="34" font-family="Cascadia, Segoe UI Emoji" font-size="16px" fill="#0b7285" text-anchor="start" style="white-space: pre;" direction="ltr">-UseEffect</text></g><g transform="translate(50 150) rotate(0 19.5 9.5)"><text x="0" y="15" font-family="Cascadia, Segoe UI Emoji" font-size="16px" fill="#0b7285" text-anchor="start" style="white-space: pre;" direction="ltr">Form</text></g><g stroke-linecap="round" transform="translate(210 170) rotate(0 20 20)"><path d="M-1.86 -1.9 C11.94 -2.12, 20.19 1.12, 39.78 1.04 M0.37 0.27 C8.43 0.04, 18.55 0.09, 39.73 -0.93 M41.16 -0.6 C38.17 16.39, 38.44 33.29, 38.08 38.36 M40.42 -0.47 C39.38 10.69, 39.99 22.03, 40.37 39.72 M40.23 40.98 C28.15 40.23, 17.1 38.12, 0.18 38.08 M39.04 40.78 C27.35 41.1, 15.74 40.36, 0.21 40.59 M1.98 40.41 C-1.84 30.63, -0.47 19.92, 0.08 0.45 M-0.64 40.36 C-1.1 27.32, 0.43 15.58, 0.15 0" stroke="#0b7285" stroke-width="1" fill="none"></path></g><g stroke-linecap="round"><g transform="translate(230 171.07451642639933) rotate(0 -0.1541671883314848 20.12914256515913)"><path d="M-1.13 -1.07 C-0.8 5.47, 0.53 33.16, 0.82 39.87 M0.48 0.98 C0.82 7.67, 0.35 34.83, 0.3 41.33" stroke="#ff1110" stroke-width="1" fill="none"></path></g></g><g stroke-linecap="round"><g transform="translate(210.50949611647053 192.70233914906157) rotate(0 20.45598977791147 -0.15743043618277852)"><path d="M0.62 -0.85 C7.01 -0.78, 32.52 0.13, 39.15 0.32 M-0.51 1.31 C6.19 1.02, 34.69 -1.71, 41.42 -1.63" stroke="#ff1110" stroke-width="1" fill="none"></path></g></g><g transform="translate(10 10) rotate(0 42.5 9.5)"><text x="0" y="15" font-family="Cascadia, Segoe UI Emoji" font-size="16px" fill="#0b7285" text-anchor="start" style="white-space: pre;" direction="ltr">Front-End</text></g><g stroke-linecap="round"><g transform="translate(890 390) rotate(0 76.54066074646653 1.2029921999533428)"><path d="M-0.76 1.18 C24.84 1.16, 127.9 0.61, 153.84 0.72 M1.04 0.76 C26.44 0.78, 127.12 1.3, 152.71 1.7" stroke="#0b7285" stroke-width="1" fill="none"></path></g><g transform="translate(890 390) rotate(0 76.54066074646653 1.2029921999533428)"><path d="M126.39 11.09 C131.56 9.92, 142.34 4.23, 154.54 2.76 M124.12 12.47 C132.88 8.58, 141.84 5.61, 153.58 1.35" stroke="#0b7285" stroke-width="1" fill="none"></path></g><g transform="translate(890 390) rotate(0 76.54066074646653 1.2029921999533428)"><path d="M126.59 -9.43 C131.84 -4.1, 142.56 -3.3, 154.54 2.76 M124.32 -8.05 C133.15 -5.39, 142.04 -1.82, 153.58 1.35" stroke="#0b7285" stroke-width="1" fill="none"></path></g></g><g stroke-linecap="round" transform="translate(1050 30) rotate(0 160 200)"><path d="M-0.77 0.95 C107.3 -0.83, 215.14 -2.05, 320.74 1.25 M0.4 -0.49 C111.5 0.16, 222.08 0.6, 319.43 0.64 M319.55 -0.71 C319.31 88.43, 317.79 178.25, 321.01 400.71 M320.54 0.3 C322.04 105.27, 322.1 210, 319.64 399.51 M321.12 398.79 C194.63 398.34, 67.8 397.61, -0.82 399.77 M319.73 400 C255.45 400.66, 190.69 400.66, 0.14 399.5 M0.12 399.33 C-1.3 253.42, -2.02 108.96, 0.65 0.88 M0.03 400.25 C-0.88 287.46, -0.96 173.61, 0.08 0.1" stroke="#0b7285" stroke-width="1" fill="none"></path></g><g stroke-linecap="round" transform="translate(1070 330) rotate(0 140 40)"><path d="M-1.03 1.37 C111.9 0.24, 223.37 0.33, 281.47 0.8 M0.35 -0.49 C74.67 1.15, 150.53 -0.01, 280.61 -0.66 M278.47 -1.17 C279.47 23.48, 277.91 52.04, 279.22 79.99 M279.03 0.2 C278.51 28.02, 279.89 54, 280.11 79.41 M281.29 80.87 C192.34 78.74, 103.05 78.39, 0.08 80.68 M279.32 80.1 C185.03 80.02, 90.41 80.38, -0.1 79.4 M1.87 78.37 C-1.3 51.57, -1.85 22.97, -0.48 -1.94 M0.92 80.99 C0.21 49.28, -0.1 18.29, -0.98 -0.62" stroke="#0b7285" stroke-width="1" fill="none"></path></g><g stroke-linecap="round" transform="translate(1070 190) rotate(0 140 60)"><path d="M-0.3 -0.9 C67.47 -3.31, 132.76 -2.36, 278.95 -1.17 M-0.73 0.46 C67.33 2.09, 135.58 1.35, 280.42 -0.75 M281.32 -1.49 C279.35 37.2, 279.48 75.74, 279.08 121.68 M280.49 -0.41 C280.98 43.29, 281.33 86.41, 280.25 119.12 M281.23 119.67 C191.99 117.34, 105.41 119.99, 0.8 121.43 M279.58 120.74 C218.67 120.38, 158.31 121.04, -0.62 120.71 M-0.36 118.14 C-2.13 70.88, -2.02 24.44, 0.29 0.03 M-0.22 120.73 C-0.87 75.48, 0.2 29.09, 0.71 -0.54" stroke="#0b7285" stroke-width="1" fill="none"></path></g><g stroke-linecap="round" transform="translate(1070 50) rotate(0 140 60)"><path d="M0.65 -1.48 C101.57 -1.48, 201.75 -1.09, 281 1.01 M0.13 -0.4 C62.85 1.92, 126.84 1.87, 279.86 0.37 M280.79 1.45 C280.57 29.38, 280.34 62.62, 278.64 121.61 M280.68 0.95 C280.37 34.38, 279.03 66.63, 280.52 119.46 M281.22 119.85 C167.9 119.32, 59.81 118.12, -0.51 119.72 M279.29 120.08 C222.1 118.69, 164.56 118.79, 0.27 119.83 M0.78 119.01 C2.22 74.21, 0.99 29.35, -1.14 -1.61 M-0.34 120.29 C1.02 75.85, 1.58 33.64, -0.41 0.07" stroke="#0b7285" stroke-width="1" fill="none"></path></g><g stroke-linecap="round"><g transform="translate(1070 370) rotate(0 -43.23607830776268 -58.935648445647615)"><path d="M-0.49 0.06 C-14.99 -9.66, -86.02 -38.09, -87.26 -57.76 C-88.5 -77.43, -20.83 -107.88, -7.93 -117.94 M1.46 -0.95 C-13.14 -11.09, -86.32 -40.38, -87.93 -59.63 C-89.55 -78.89, -21.2 -106.92, -8.24 -116.46" stroke="#0b7285" stroke-width="1" fill="none"></path></g><g transform="translate(1070 370) rotate(0 -43.23607830776268 -58.935648445647615)"><path d="M-27.84 -92.95 C-21.7 -98.7, -16.42 -108.3, -7.96 -116.12 M-28.07 -94.62 C-22.87 -98.1, -18.47 -103.36, -9.05 -116.73" stroke="#0b7285" stroke-width="1" fill="none"></path></g><g transform="translate(1070 370) rotate(0 -43.23607830776268 -58.935648445647615)"><path d="M-37.77 -110.91 C-28.73 -111.55, -20.66 -116.07, -7.96 -116.12 M-38 -112.58 C-30.35 -111.87, -23.64 -112.97, -9.05 -116.73" stroke="#0b7285" stroke-width="1" fill="none"></path></g></g><g stroke-linecap="round"><g transform="translate(1070 250) rotate(0 -44.131101885916564 -67.73462565904711)"><path d="M0.75 -0.78 C-14.13 -13.9, -87.44 -55.23, -88.66 -77.91 C-89.88 -100.6, -20.51 -127.29, -6.56 -136.89 M-0.32 1.42 C-15.3 -11.62, -88.38 -53.84, -89.01 -76.73 C-89.64 -99.62, -18.19 -125.76, -4.07 -135.92" stroke="#0b7285" stroke-width="1" fill="none"></path></g><g transform="translate(1070 250) rotate(0 -44.131101885916564 -67.73462565904711)"><path d="M-25.58 -111.85 C-18.51 -122.88, -11.44 -127.97, -2.87 -137.58 M-24.05 -114.14 C-17.34 -122.9, -8.19 -130.37, -4.65 -136.08" stroke="#0b7285" stroke-width="1" fill="none"></path></g><g transform="translate(1070 250) rotate(0 -44.131101885916564 -67.73462565904711)"><path d="M-35.11 -130.02 C-24.6 -134.78, -14.2 -133.54, -2.87 -137.58 M-33.58 -132.31 C-23.27 -134.19, -10.55 -134.84, -4.65 -136.08" stroke="#0b7285" stroke-width="1" fill="none"></path></g></g><g stroke-linecap="round"><g transform="translate(1350 110) rotate(0 39.76229794133087 74.58525777491514)"><path d="M-0.15 0.66 C13.5 20.6, 80.28 95.33, 81.21 120.09 C82.15 144.85, 17.91 144.41, 5.45 149.2 M-1.69 -0.03 C11.95 19.48, 79.19 93.62, 80.8 118.14 C82.4 142.66, 20.28 141.78, 7.95 147.09" stroke="#0b7285" stroke-width="1" fill="none"></path></g><g transform="translate(1350 110) rotate(0 39.76229794133087 74.58525777491514)"><path d="M34.92 133.57 C28.16 134.28, 22.08 139.64, 8.11 146.59 M33.43 131.14 C25.02 136.81, 13.99 143.75, 7.85 147.7" stroke="#0b7285" stroke-width="1" fill="none"></path></g><g transform="translate(1350 110) rotate(0 39.76229794133087 74.58525777491514)"><path d="M38.64 153.75 C30.89 149.57, 23.92 150.04, 8.11 146.59 M37.15 151.32 C27.59 149.66, 15.21 149.27, 7.85 147.7" stroke="#0b7285" stroke-width="1" fill="none"></path></g></g><g stroke-linecap="round"><g transform="translate(1350 270) rotate(0 50.535633677873875 56.309886266950116)"><path d="M0.94 0.93 C17.6 15.22, 100.15 66.35, 101.1 84.73 C102.04 103.11, 22.2 106.63, 6.63 111.22 M-0.02 0.37 C16.46 14.87, 99.69 67.08, 100.62 85.73 C101.55 104.37, 20.98 108.21, 5.56 112.25" stroke="#0b7285" stroke-width="1" fill="none"></path></g><g transform="translate(1350 270) rotate(0 50.535633677873875 56.309886266950116)"><path d="M33.52 99.54 C19.75 102.88, 10.18 110.14, 6.43 112.25 M30.99 97.19 C24.54 102, 17.18 105.94, 5.08 112.17" stroke="#0b7285" stroke-width="1" fill="none"></path></g><g transform="translate(1350 270) rotate(0 50.535633677873875 56.309886266950116)"><path d="M36.47 119.85 C21.72 115.23, 10.99 114.5, 6.43 112.25 M33.93 117.5 C26.51 116.44, 18.29 114.52, 5.08 112.17" stroke="#0b7285" stroke-width="1" fill="none"></path></g></g><g transform="translate(1082.2048752480673 77.7627302776045) rotate(0 22.5 9)"><text x="0" y="14" font-family="Helvetica, Segoe UI Emoji" font-size="16px" fill="#0b7285" text-anchor="start" style="white-space: pre;" direction="ltr">Model</text></g><g transform="translate(1085.2048752480673 233.76273027760453) rotate(0 27 9)"><text x="0" y="14" font-family="Helvetica, Segoe UI Emoji" font-size="16px" fill="#0b7285" text-anchor="start" style="white-space: pre;" direction="ltr">Service</text></g><g transform="translate(1089.2048752480673 353.76273027760453) rotate(0 35 9)"><text x="0" y="14" font-family="Helvetica, Segoe UI Emoji" font-size="16px" fill="#0b7285" text-anchor="start" style="white-space: pre;" direction="ltr">Controller</text></g><g stroke-linecap="round"><g transform="translate(1370 390) rotate(0 31.071713848594754 42.31400092455331)"><path d="M0.76 0.72 C11 14.67, 52.38 70.91, 62.44 84.58 M-0.3 0.05 C9.71 13.59, 50.99 68.97, 61.62 82.89" stroke="#0b7285" stroke-width="1" fill="none"></path></g><g transform="translate(1370 390) rotate(0 31.071713848594754 42.31400092455331)"><path d="M37.66 66.93 C47.61 70.88, 54.26 78.47, 60.81 81.55 M37.1 67.32 C45.32 71.53, 53.23 77.59, 62.42 82.13" stroke="#0b7285" stroke-width="1" fill="none"></path></g><g transform="translate(1370 390) rotate(0 31.071713848594754 42.31400092455331)"><path d="M54.05 54.59 C57.8 63.39, 58.14 75.72, 60.81 81.55 M53.49 54.97 C56.34 63.16, 58.78 73.34, 62.42 82.13" stroke="#0b7285" stroke-width="1" fill="none"></path></g></g><g transform="translate(1445.2048752480673 483.76273027760453) rotate(0 59.5 9)"><text x="0" y="14" font-family="Helvetica, Segoe UI Emoji" font-size="16px" fill="#0b7285" text-anchor="start" style="white-space: pre;" direction="ltr">Fetch from Front</text></g><g stroke-linecap="round" transform="translate(930 50) rotate(0 40 40)"><path d="M0.06 1.66 C18 -0.42, 36.89 -1.54, 81.42 1.78 M0.52 -0.46 C31.61 0.09, 62.39 0.36, 80.74 0.18 M78.91 1.09 C79.64 31.5, 77.84 63.23, 78.16 78.41 M80.84 -0.07 C79.51 31.92, 79.18 61.3, 80.88 79.55 M79.79 79.32 C55.83 80.86, 31.28 80.58, -0.66 80.33 M80.63 80.11 C60.88 80.39, 42.2 79.52, 0.09 79.22 M-0.15 79.1 C1.79 57.07, -0.02 37.38, 1.67 -0.81 M0.72 79.04 C-0.05 60.88, 0.57 42.23, -0.24 0.62" stroke="#0b7285" stroke-width="1" fill="none"></path></g><g stroke-linecap="round" transform="translate(330 50) rotate(0 40 40)"><path d="M-0.14 -0.26 C22.11 -1.58, 39.15 1.08, 79.1 -0.12 M-0.34 -0.33 C21.9 -0.76, 43.17 -0.24, 80.16 -0.69 M80.21 -1.24 C81.25 28.05, 79.51 59.45, 78.44 79.46 M79.55 0.56 C79.88 16.99, 80.95 35.51, 79.59 79.31 M78.07 79.95 C54.45 81.76, 29.86 80.09, 1.24 80.05 M79.81 79.55 C60.64 80.71, 40.95 81.25, -0.03 80.76 M-1 81.3 C0.47 57.16, 1.73 34.07, 0.17 -1.99 M0.45 80.36 C-0.3 55.61, -0.04 28.63, -0.43 -0.37" stroke="#0b7285" stroke-width="1" fill="none"></path></g><g transform="translate(350 70) rotate(0 28 18)"><text x="0" y="14" font-family="Helvetica, Segoe UI Emoji" font-size="16px" fill="#0b7285" text-anchor="start" style="white-space: pre;" direction="ltr">TEST</text><text x="0" y="32" font-family="Helvetica, Segoe UI Emoji" font-size="16px" fill="#0b7285" text-anchor="start" style="white-space: pre;" direction="ltr">w/JEST</text></g><g transform="translate(950 70) rotate(0 41.5 27)"><text x="0" y="14" font-family="Helvetica, Segoe UI Emoji" font-size="16px" fill="#0b7285" text-anchor="start" style="white-space: pre;" direction="ltr">TEST</text><text x="0" y="32" font-family="Helvetica, Segoe UI Emoji" font-size="16px" fill="#0b7285" text-anchor="start" style="white-space: pre;" direction="ltr">w/ Sinon</text><text x="0" y="50" font-family="Helvetica, Segoe UI Emoji" font-size="16px" fill="#0b7285" text-anchor="start" style="white-space: pre;" direction="ltr">mocha/chai</text></g></svg>